<svg width="333" height="50" viewBox="0 0 333 50" fill="none" xmlns="http://www.w3.org/2000/svg">
<g clip-path="url(#clip0)">
<path d="M67.2176 30.9917V42.9752H61.2259V13.0165L60.0551 7.0248H80.4407L82.8512 13.0165V25L80.4407 30.9917H67.2176ZM76.7906 13.0165H67.2176V25H76.7906V13.0165Z" fill="white"/>
<path d="M93.7327 42.9752L89.6694 36.9835L87.6033 28.0303V22.0386L89.6694 13.0854L93.7327 7.09367H105.372L109.435 13.0854L111.501 22.0386V28.0303L109.435 36.9835L105.372 42.9752H93.7327ZM103.926 34.4353L105.441 28.3058V22.3141L103.857 15.3581L102.204 12.9477H96.9008L95.2479 15.427L93.8016 21.9697V27.9614L95.3168 34.573L96.9008 36.9835H102.273L103.926 34.4353Z" fill="white"/>
<path d="M118.664 42.9752L116.253 36.9835V13.0165L118.664 7.0248H137.81L136.639 13.0165H122.245V36.9835H137.81L136.639 42.9752H118.664Z" fill="white"/>
<path d="M151.653 42.9752V13.0165H142.7L141.529 7.0248H166.667L167.837 13.0165H157.645V42.9752H151.653Z" fill="white"/>
<path d="M179.132 42.9752V13.0165H170.179L169.008 7.0248H194.146L195.317 13.0165H185.124V42.9752H179.132Z" fill="white"/>
<path d="M198.898 42.9752V13.0165L197.727 7.0248H221.694L220.523 13.0165H204.959V21.9697H218.733L217.562 27.9614H204.959V36.9146H221.694L220.523 42.9063H198.898V42.9752Z" fill="white"/>
<path d="M243.113 42.9752L237.879 28.0303H236.708L231.474 42.9752H225.344L231.405 25L225.344 7.0248H231.474L236.708 21.9697H237.879L243.113 7.0248H249.242L243.182 25L249.242 42.9752H243.113Z" fill="white"/>
<path d="M271.074 42.9752V13.0165H270.179L268.664 27.9614H260.881L259.366 13.0165H258.471V42.9752H252.479V13.0165L251.308 7.0248H263.567L264.463 21.9697H265.083L265.978 7.0248H277.066V42.9752H271.074Z" fill="white"/>
<path d="M298.14 42.9752L296.556 34.022H288.016L286.432 42.9752H280.303L286.639 7.0248H297.865L304.201 42.9752H298.14ZM292.906 13.0165H291.735L289.118 27.9614H295.592L292.906 13.0165Z" fill="white"/>
<path d="M307.576 42.9752V13.0165L306.405 7.0248H313.016V36.9835H317.218V7.0248H322.589V36.9835H326.791V7.0248H332.162V42.9752H307.576Z" fill="white"/>
<path d="M30.5096 6.26722L22.7272 10.8127L11.8457 4.54545L19.6969 0L30.5096 6.26722Z" fill="#FCCD5F"/>
<path d="M11.8457 4.54546V26.2397L22.7272 32.5069V10.8127L11.8457 4.54546Z" fill="#FBB910"/>
<path d="M30.5097 27.9614V6.26721L22.7273 10.8127V32.5069L30.5097 27.9614Z" fill="#F9AF14"/>
<path d="M45.6612 21.9008L37.8788 26.4463L27.0662 20.1791L34.8485 15.6336L45.6612 21.9008Z" fill="#59C0E4"/>
<path d="M27.0662 20.1791V37.0523L37.8788 43.3196V26.4463L27.0662 20.1791Z" fill="#0094C7"/>
<path d="M45.6613 38.7741V21.9008L37.8789 26.4463V43.3196L45.6613 38.7741Z" fill="#0456A2"/>
<path d="M18.6639 23.4849L10.8127 27.9614L0 21.7631L7.78237 17.2176L18.6639 23.4849Z" fill="#2B89CA"/>
<path d="M0 21.7631V33.5399L10.8127 39.8072V27.9614L0 21.7631Z" fill="#0664AE"/>
<path d="M18.664 35.2617V23.4848L10.8127 27.9614V39.8072L18.664 35.2617Z" fill="#035097"/>
<path d="M34.1598 43.1129L26.3774 47.6584L15.4958 41.3912L23.3471 36.8457L34.1598 43.1129Z" fill="#375CA7"/>
<path d="M15.4958 41.3912V43.7328L26.3774 50V47.6584L15.4958 41.3912Z" fill="#2E509E"/>
<path d="M34.1598 45.4545V43.1129L26.3774 47.6584V50L34.1598 45.4545Z" fill="#243366"/>
</g>
<defs>
<clipPath id="clip0">
<rect width="332.094" height="50" fill="white"/>
</clipPath>
</defs>
</svg>
