<svg width="16" height="17" viewBox="0 0 16 17" fill="none" xmlns="http://www.w3.org/2000/svg">
<path d="M8 1.83333C4.32 1.83333 1.33334 4.81999 1.33334 8.5C1.33334 12.18 4.32 15.1667 8 15.1667C11.68 15.1667 14.6667 12.18 14.6667 8.5C14.6667 4.81999 11.68 1.83333 8 1.83333ZM8 13.8333C5.06 13.8333 2.66667 11.44 2.66667 8.5C2.66667 5.56 5.06 3.16666 8 3.16666C10.94 3.16666 13.3333 5.56 13.3333 8.5C13.3333 11.44 10.94 13.8333 8 13.8333ZM7.33334 11.1667H8.66667V12.5H7.33334V11.1667ZM8.40667 4.52666C7.03334 4.32666 5.82 5.17333 5.45334 6.38666C5.33334 6.77333 5.62667 7.16666 6.03334 7.16666H6.16667C6.44 7.16666 6.66 6.97333 6.75334 6.72C6.96667 6.12666 7.6 5.72 8.28667 5.86666C8.92 6 9.38667 6.61999 9.33334 7.26666C9.26667 8.16 8.25334 8.35333 7.7 9.18666C7.7 9.19333 7.69334 9.19333 7.69334 9.2C7.68667 9.21333 7.68 9.22 7.67334 9.23333C7.61334 9.33333 7.55334 9.44666 7.50667 9.56666C7.5 9.58666 7.48667 9.6 7.48 9.62C7.47334 9.63333 7.47334 9.64666 7.46667 9.66666C7.38667 9.89333 7.33334 10.1667 7.33334 10.5H8.66667C8.66667 10.22 8.74 9.98666 8.85334 9.78666C8.86667 9.76666 8.87334 9.74666 8.88667 9.72666C8.94 9.63333 9.00667 9.54666 9.07334 9.46666C9.08 9.45999 9.08667 9.44666 9.09334 9.43999C9.16 9.35999 9.23334 9.28666 9.31334 9.21333C9.95334 8.60666 10.82 8.11333 10.64 6.84C10.48 5.68 9.56667 4.7 8.40667 4.52666Z" fill="#81888E"/>
</svg>
