<svg width="42" height="42" viewBox="0 0 42 42" fill="#FFBA00" xmlns="http://www.w3.org/2000/svg">
<path d="M21 8.26597C13.8801 8.26597 8.0872 14.0584 8.0872 21.1788C8.0872 25.9543 10.7256 30.3124 14.8787 32.516V36.817C14.8787 37.5574 15.4788 38.1574 16.2191 38.1574H25.7809C26.5212 38.1574 27.1212 37.5578 27.1212 36.817V32.5491C31.2739 30.2882 33.9123 25.9153 33.9123 21.1788C33.9123 14.0588 28.1199 8.26597 21 8.26597ZM25.2201 30.5059C24.7451 30.7248 24.4404 31.2002 24.4404 31.7235V35.4766H17.5596V31.6788C17.5596 31.1493 17.2473 30.6689 16.7634 30.454C13.1215 28.8352 10.7681 25.1942 10.7681 21.1788C10.7681 15.5369 15.3582 10.9468 21.0001 10.9468C26.6419 10.9468 31.2316 15.5369 31.2316 21.1788C31.2315 25.1624 28.8719 28.8237 25.2201 30.5059Z" />
<path d="M24.8873 39.3191H17.1129C16.3725 39.3191 15.7725 39.9192 15.7725 40.6595C15.7725 41.3999 16.3725 41.9999 17.1129 41.9999H24.8873C25.6276 41.9999 26.2277 41.3999 26.2277 40.6595C26.2278 39.9192 25.6277 39.3191 24.8873 39.3191Z" />
<path d="M22.3405 0H19.6596V5.5851H22.3405V0Z" />
<path d="M5.71913 19.5256H0.134033V22.2064H5.71913V19.5256Z" />
<path d="M41.866 19.5256H36.2809V22.2064H41.866V19.5256Z" />
<path d="M7.19787 5.16821L5.31295 7.07458L9.28965 11.0065L11.1746 9.10017L7.19787 5.16821Z" />
<path d="M34.8022 5.16939L30.8255 9.10135L32.7104 11.0077L36.6871 7.07575L34.8022 5.16939Z" />
</svg>
